<?xml version="1.0" standalone="no"?>
<!DOCTYPE svg PUBLIC "-//W3C//DTD SVG 20010904//EN"
 "http://www.w3.org/TR/2001/REC-SVG-20010904/DTD/svg10.dtd">
<svg version="1.0" xmlns="http://www.w3.org/2000/svg"
 width="919.000000pt" height="919.000000pt" viewBox="0 0 919.000000 919.000000"
 preserveAspectRatio="xMidYMid meet">
<metadata>
Created by potrace 1.14, written by Peter Selinger 2001-2017
</metadata>
<g transform="translate(0.000000,919.000000) scale(0.100000,-0.100000)"
fill="#000000" stroke="none">
<path d="M4340 8610 c-125 -12 -377 -46 -465 -64 -296 -60 -518 -119 -650
-174 -27 -11 -93 -37 -145 -58 -297 -115 -568 -266 -872 -486 -76 -55 -140
-103 -142 -107 -11 -17 107 -288 181 -420 120 -212 244 -379 403 -545 83 -86
229 -215 281 -248 14 -9 32 -23 40 -30 23 -23 126 -88 253 -159 l118 -67 50
36 c27 21 55 40 61 44 401 257 866 383 1337 364 196 -8 329 -27 500 -73 495
-132 948 -441 1276 -870 35 -46 64 -88 64 -92 0 -5 13 -23 29 -41 32 -38 45
-37 141 7 30 14 100 43 155 65 55 22 106 44 115 49 8 4 42 18 75 30 33 13 65
26 70 30 6 4 51 23 100 43 50 20 104 43 120 51 71 34 649 279 683 290 13 4 69
28 125 55 56 26 111 50 122 52 13 2 19 10 17 23 -5 24 -181 339 -238 425 -186
279 -325 452 -515 640 -132 131 -226 217 -299 275 -41 33 -88 72 -105 87 -66
59 -277 203 -440 301 -141 84 -469 247 -565 280 -25 9 -88 32 -140 53 -222 86
-594 174 -910 215 -184 24 -656 34 -830 19z"/>
<path d="M1613 7297 c-67 -70 -160 -182 -254 -307 -85 -114 -159 -217 -159
-224 0 -3 -24 -43 -54 -88 -65 -100 -247 -466 -285 -575 -16 -43 -38 -105 -51
-138 -89 -239 -152 -527 -190 -865 -22 -198 -27 -589 -10 -795 15 -177 80
-539 120 -670 5 -16 23 -75 39 -130 16 -55 38 -122 49 -150 10 -27 36 -95 57
-150 65 -174 214 -463 325 -630 256 -387 510 -678 800 -914 41 -34 94 -77 117
-96 23 -19 46 -35 51 -35 6 0 12 -4 14 -8 5 -13 183 -136 328 -228 119 -75
368 -199 520 -258 52 -21 118 -47 145 -58 122 -51 330 -114 465 -142 41 -8
116 -24 165 -35 153 -32 440 -71 529 -71 32 0 38 5 71 63 20 34 60 99 88 144
87 138 122 193 133 213 6 11 18 28 26 37 9 10 25 34 36 53 11 19 66 109 122
200 57 91 114 183 127 205 13 22 37 60 53 85 16 25 45 72 65 105 20 33 48 79
63 102 55 86 167 263 273 433 144 231 161 258 233 370 91 139 109 170 103 176
-2 3 -38 -11 -80 -30 -481 -222 -1000 -271 -1511 -142 -251 64 -452 152 -656
288 -132 88 -181 129 -300 248 -115 115 -175 189 -277 345 -47 72 -120 218
-163 325 -111 278 -162 640 -131 925 37 340 183 735 359 973 13 18 22 35 21
36 -2 2 -28 16 -58 31 -170 85 -420 281 -614 479 -250 257 -494 616 -602 889
-15 37 -30 69 -34 72 -4 2 -35 -24 -68 -58z"/>
<path d="M6699 3750 c-8 -5 -33 -37 -54 -72 -21 -35 -71 -113 -110 -173 -40
-61 -74 -115 -76 -120 -2 -6 -33 -57 -69 -113 -36 -57 -74 -117 -84 -135 -11
-18 -42 -66 -69 -107 -28 -41 -97 -154 -155 -250 -57 -96 -115 -189 -128 -207
-13 -17 -24 -34 -24 -37 0 -3 -55 -94 -123 -203 -68 -109 -132 -212 -143 -230
-35 -57 -139 -224 -154 -248 -18 -27 -111 -182 -125 -207 -18 -32 -163 -271
-209 -343 -109 -173 -348 -586 -343 -592 5 -4 343 31 452 48 295 44 624 129
855 219 30 12 84 33 120 47 36 14 125 54 199 89 73 35 135 64 136 64 20 0 383
226 505 315 253 182 576 486 760 714 19 24 40 49 46 55 22 23 144 196 219 311
110 169 119 184 154 251 18 32 49 88 71 124 21 36 39 70 39 75 1 6 -63 37
-142 69 -78 33 -164 69 -192 81 -27 12 -61 26 -75 30 -13 4 -58 23 -100 43
-41 19 -91 40 -110 48 -19 7 -98 39 -175 72 -77 32 -187 78 -245 102 -137 55
-119 48 -320 133 -96 41 -193 81 -215 90 -68 27 -94 41 -97 54 -2 8 -8 9 -19
3z"/>
</g>
</svg>
